<svg width="22" height="16" viewBox="0 0 22 16" fill="none" xmlns="http://www.w3.org/2000/svg">
<path d="M10.9481 10.5399C7.49811 10.5399 4.58716 11.1037 4.58716 13.2794C4.58716 15.4561 7.51692 16 10.9481 16C14.3981 16 17.309 15.4362 17.309 13.2605C17.309 11.0839 14.3793 10.5399 10.9481 10.5399Z" fill="#959895"/>
<path opacity="0.4" d="M10.9481 8.46703C13.2842 8.46703 15.1574 6.58307 15.1574 4.23351C15.1574 1.88306 13.2842 0 10.9481 0C8.61201 0 6.73883 1.88306 6.73883 4.23351C6.73883 6.58307 8.61201 8.46703 10.9481 8.46703Z" fill="#959895"/>
<path opacity="0.4" d="M20.087 5.21926C20.6914 2.84179 18.9194 0.706573 16.663 0.706573C16.4177 0.706573 16.1831 0.73359 15.9538 0.779519C15.9234 0.786723 15.8894 0.802032 15.8715 0.829049C15.8509 0.86327 15.8661 0.909199 15.8885 0.938917C16.5663 1.89531 16.9558 3.05973 16.9558 4.3097C16.9558 5.50744 16.5985 6.62413 15.9718 7.5508C15.9073 7.64626 15.9646 7.77504 16.0783 7.79485C16.2359 7.82277 16.3971 7.83718 16.5618 7.84168C18.2049 7.88491 19.6796 6.82135 20.087 5.21926Z" fill="#959895"/>
<path d="M21.8084 10.8169C21.5075 10.1721 20.7813 9.72996 19.6773 9.51292C19.1562 9.38504 17.7459 9.20493 16.4342 9.22925C16.4145 9.23195 16.4037 9.24546 16.4019 9.25446C16.3992 9.26707 16.4046 9.28868 16.4306 9.30219C17.0368 9.60388 19.38 10.916 19.0855 13.6834C19.0729 13.8032 19.1687 13.9067 19.2878 13.8887C19.8645 13.8059 21.3481 13.4853 21.8084 12.4866C22.0627 11.9588 22.0627 11.3456 21.8084 10.8169Z" fill="#959895"/>
<path opacity="0.4" d="M6.04392 0.779793C5.81559 0.732964 5.5801 0.706848 5.33476 0.706848C3.07834 0.706848 1.30634 2.84207 1.91163 5.21953C2.31815 6.82162 3.79287 7.88518 5.43594 7.84195C5.60069 7.83745 5.76276 7.82214 5.91946 7.79513C6.03317 7.77531 6.09048 7.64653 6.02601 7.55107C5.39923 6.6235 5.04196 5.50771 5.04196 4.30997C5.04196 3.0591 5.43236 1.89468 6.11018 0.939192C6.13167 0.909473 6.14778 0.863545 6.12629 0.829324C6.10839 0.801407 6.07526 0.786998 6.04392 0.779793Z" fill="#959895"/>
<path d="M2.32064 9.51267C1.21661 9.7297 0.491332 10.1719 0.190477 10.8167C-0.064713 11.3453 -0.064713 11.9586 0.190477 12.4872C0.650714 13.485 2.1344 13.8065 2.71104 13.8885C2.83012 13.9065 2.92504 13.8038 2.9125 13.6831C2.61791 10.9166 4.96118 9.60453 5.56827 9.30284C5.59334 9.28843 5.59871 9.26772 5.59602 9.25421C5.59423 9.2452 5.58438 9.2317 5.56468 9.22989C4.25202 9.20468 2.84266 9.38479 2.32064 9.51267Z" fill="#959895"/>
</svg>
