<svg width="14" height="15" viewBox="0 0 14 15" fill="none" xmlns="http://www.w3.org/2000/svg">
<g clip-path="url(#clip0_2_927)">
<path d="M10.3384 2.55559C10.6053 2.41731 10.7901 2.12551 10.7901 1.78684C10.7901 1.56058 10.7063 1.34358 10.5569 1.18359C10.4076 1.0236 10.2051 0.933716 9.9939 0.933716C9.78272 0.933716 9.58019 1.0236 9.43086 1.18359C9.28154 1.34358 9.19765 1.56058 9.19765 1.78684C9.19765 2.1302 9.38687 2.42434 9.65921 2.56028C9.34421 4.3884 8.86077 5.74895 7.06155 6.03958C7.06155 6.03958 7.54609 8.63528 9.81233 8.63528C12.0786 8.63528 12.3083 6.06536 12.3083 6.06536C10.4697 6.16614 10.3144 3.68997 10.3384 2.55559Z" fill="#F19534"/>
<path d="M3.79987 2.55559C3.53299 2.41731 3.34815 2.12551 3.34815 1.78684C3.34815 1.56058 3.43204 1.34358 3.58136 1.18359C3.73069 1.0236 3.93322 0.933716 4.1444 0.933716C4.35558 0.933716 4.5581 1.0236 4.70743 1.18359C4.85676 1.34358 4.94065 1.56058 4.94065 1.78684C4.94065 2.1302 4.75143 2.42434 4.47908 2.56028C4.79408 4.3884 5.27752 5.74895 7.07674 6.03958C7.07674 6.03958 6.59221 8.63528 4.32596 8.63528C2.05971 8.63528 1.83112 6.06653 1.83112 6.06653C3.66862 6.16614 3.82393 3.68997 3.79987 2.55559Z" fill="#F19534"/>
<path d="M9.78165 8.63564C9.79149 8.63564 9.80133 8.63682 9.81118 8.63682C10.4357 8.63682 10.9049 8.44111 11.2571 8.15869L9.78165 8.63564Z" fill="#FFCA28"/>
<path d="M13.0424 1.9752C12.6782 1.92247 12.3304 2.29395 12.2669 2.80255C12.2276 3.12012 12.3074 3.41661 12.4616 3.60762L12.1991 4.77364C12.1991 4.77364 11.7977 7.52872 9.76991 8.07247C8.14897 8.50723 7.56163 5.32794 7.41944 4.34591C7.72788 4.18184 7.94116 3.842 7.94116 3.44708C7.94116 2.89278 7.52225 2.44395 7.00491 2.44395C6.48756 2.44395 6.06866 2.89278 6.06866 3.44708C6.06866 3.84434 6.28522 4.1877 6.59913 4.34942C6.48647 5.31856 5.98991 8.39239 4.23991 8.07129C2.46366 7.74434 1.68819 4.53926 1.50881 3.66739C1.72209 3.47989 1.84131 3.14942 1.79756 2.79434C1.73413 2.28458 1.35788 1.91895 0.957563 1.97637C0.557251 2.0338 0.284907 2.49317 0.348344 3.00177C0.394282 3.37208 0.606469 3.66622 0.872251 3.77755L2.2635 13.0389C2.2635 13.0389 3.47756 14.0666 7.00491 14.0666C10.5323 14.0666 11.7463 13.0389 11.7463 13.0389L13.1408 3.75294C13.3662 3.62637 13.5433 3.34161 13.5871 2.99239C13.6516 2.48262 13.4077 2.02794 13.0424 1.9752Z" fill="#FFCA28"/>
<path d="M7.04832 11.7084C7.63667 11.7084 8.11363 11.0993 8.11363 10.3479C8.11363 9.59644 7.63667 8.9873 7.04832 8.9873C6.45996 8.9873 5.983 9.59644 5.983 10.3479C5.983 11.0993 6.45996 11.7084 7.04832 11.7084Z" fill="#26A69A"/>
<path d="M7.04895 9.32321C7.09051 9.37243 7.1277 9.46266 7.04895 9.63845C6.9702 9.81423 6.54582 10.0521 6.46817 10.1002C6.39051 10.1494 6.33911 10.1271 6.31504 10.1072C6.2002 10.0088 6.24395 9.7861 6.31832 9.65016C6.47801 9.35602 6.81598 9.05251 7.04895 9.32321Z" fill="#69F0AE"/>
<path d="M6.9698 10.8553C6.84949 10.9175 6.45464 11.1061 6.5848 11.33C6.66136 11.4624 6.81996 11.5186 6.96542 11.5257C7.11089 11.5327 7.25417 11.4835 7.38324 11.412C7.99574 11.0721 8.04495 10.1792 7.92574 10.1112C7.80324 10.0409 7.72011 10.2225 7.65667 10.2999C7.46378 10.5313 7.23043 10.72 6.9698 10.8553Z" fill="#00796B"/>
<path d="M12.9158 9.23416C13.0864 8.22283 12.452 7.96971 12.452 7.96971C12.452 7.96971 12.043 7.89002 11.8505 9.02791C11.658 10.1646 12.067 10.2443 12.067 10.2443C12.067 10.2443 12.7441 10.2455 12.9158 9.23416Z" fill="#26A69A"/>
<path d="M12.6345 8.31533C12.7832 8.52861 12.6071 8.84385 12.3217 9.05362C12.2375 9.11572 12.1259 9.09229 12.1095 9.04072C12.0636 8.89307 12.0832 8.72549 12.1445 8.58369C12.3261 8.1583 12.559 8.20752 12.6345 8.31533Z" fill="#69F0AE"/>
<path d="M1.06692 9.2648C0.8952 8.25465 1.53067 8.00035 1.53067 8.00035C1.53067 8.00035 1.93973 7.92066 2.13223 9.05855C2.32473 10.1953 1.91567 10.275 1.91567 10.275C1.91567 10.275 1.23754 10.2761 1.06692 9.2648Z" fill="#26A69A"/>
<path d="M1.72584 8.34402C1.8724 8.46121 1.81224 8.61473 1.70177 8.72137C1.57599 8.84441 1.47974 8.97918 1.37255 9.11863C1.35615 9.13973 1.33755 9.16316 1.3113 9.16902C1.26099 9.18074 1.22052 9.12566 1.20412 9.07293C1.15709 8.92527 1.16584 8.75183 1.23584 8.6159C1.4349 8.22801 1.66896 8.29832 1.72584 8.34402Z" fill="#69F0AE"/>
<path d="M10.9364 10.214C10.861 10.6745 10.5164 10.9944 10.1653 10.9288C9.81425 10.8632 9.76613 10.4706 9.8416 10.0101C9.91706 9.5495 10.0866 9.19677 10.4366 9.26239C10.7877 9.32802 11.0119 9.75458 10.9364 10.214Z" fill="#F44336"/>
<path d="M3.32788 10.214C3.40335 10.6745 3.74788 10.9944 4.09897 10.9288C4.45006 10.8632 4.49819 10.4706 4.42272 10.0101C4.34725 9.5495 4.17772 9.19677 3.82772 9.26239C3.47772 9.32802 3.2535 9.75458 3.32788 10.214Z" fill="#F44336"/>
<path d="M3.8374 9.90705C3.75756 10.0031 3.56287 10.1965 3.49396 10.0488C3.3999 9.84729 3.53006 9.5426 3.67881 9.44182C3.82756 9.34104 3.94896 9.42073 3.96974 9.51096C3.9949 9.6258 3.90849 9.82033 3.8374 9.90705Z" fill="#FFA8A4"/>
<path d="M10.0599 10.2007C9.95162 10.1831 9.93959 9.78352 10.2305 9.46946C10.3694 9.31946 10.5685 9.49758 10.5182 9.73782C10.4701 9.96633 10.2579 10.2335 10.0599 10.2007Z" fill="#FFA8A4"/>
<path d="M11.9378 11.5085C11.2826 11.8601 9.77982 12.7964 7.00497 12.7964C4.23013 12.7964 2.72732 11.8601 2.07216 11.5085C2.07216 11.5085 1.83701 11.6433 1.83701 11.7839V12.8632C1.83701 13.0074 1.9081 13.1398 2.02404 13.2136C2.53591 13.5371 4.0956 14.3011 7.00607 14.3011C9.91654 14.3011 11.4762 13.5371 11.9881 13.2136C12.045 13.1777 12.0922 13.1264 12.125 13.065C12.1578 13.0036 12.1751 12.934 12.1751 12.8632V11.7839C12.1729 11.6433 11.9378 11.5085 11.9378 11.5085Z" fill="#FFCA28"/>
<path d="M4.33066 12.9893C4.63691 13.0538 4.72988 13.0819 4.70909 13.2647C4.66644 13.6245 3.96972 13.5389 3.55738 13.4229C2.70534 13.1827 2.53253 12.9295 2.53253 12.7034C2.53253 12.496 2.68128 12.4713 2.91097 12.5581C3.1855 12.6624 3.60988 12.8381 4.33066 12.9893Z" fill="#FFF59D"/>
<path d="M11.9388 11.7457C11.9388 11.7457 10.1264 12.8449 7.00596 12.8449C3.88549 12.8449 2.07315 11.7457 2.07315 11.7457" stroke="#F19534" stroke-miterlimit="10" stroke-linecap="round"/>
<path d="M2.94995 5.80868C3.53183 5.36337 3.84464 4.56532 3.87198 3.29501C3.87417 3.18017 3.90479 3.14618 3.96276 3.13915C4.05573 3.12861 4.07104 3.21884 4.06995 3.28329C4.0437 4.65439 3.88073 5.51103 3.23542 5.99384C3.2037 6.01728 2.97729 6.16493 2.88104 6.06298C2.7662 5.94345 2.91276 5.83681 2.94995 5.80868Z" fill="#FFCA28"/>
<path d="M3.48326 1.821C3.46467 1.60889 3.51061 1.22686 4.03014 1.05342C4.18217 1.00303 4.27623 1.08272 4.29373 1.14483C4.33748 1.29951 4.21061 1.36045 4.15264 1.38037C3.75342 1.51865 3.73373 1.73193 3.6517 1.86787C3.56967 2.00381 3.48982 1.88545 3.48326 1.821Z" fill="#FFCA28"/>
<path d="M8.55427 5.52759C9.08037 5.0272 9.42927 4.46821 9.65896 3.19556C9.67974 3.08306 9.71037 3.05259 9.76724 3.05493C9.86021 3.05728 9.86458 3.14985 9.85474 3.21314C9.66005 4.57017 9.47521 4.95689 8.82662 5.72681C8.75333 5.81353 8.57505 5.89204 8.47443 5.80181C8.38365 5.72095 8.48865 5.59087 8.55427 5.52759Z" fill="#FFCA28"/>
<path d="M9.33046 1.83162C9.31187 1.61951 9.3578 1.23748 9.87734 1.06404C10.0294 1.01365 10.1234 1.09334 10.1409 1.15545C10.1847 1.31013 10.0578 1.37107 9.99983 1.39099C9.60062 1.52927 9.58093 1.74255 9.4989 1.87849C9.41796 2.01443 9.33702 1.89607 9.33046 1.83162Z" fill="#FFCA28"/>
<path d="M3.45447 8.3924C2.18353 7.77482 1.80947 6.16349 1.61041 5.46388C1.58416 5.3713 1.59728 5.28341 1.68369 5.25529C1.7701 5.22716 1.8215 5.28693 1.84885 5.3795C1.99322 5.88693 2.55432 7.58146 3.7126 8.0631C3.79682 8.09825 3.92807 8.1838 3.85697 8.33028C3.80994 8.42521 3.659 8.492 3.45447 8.3924Z" fill="#FFF59D"/>
<path d="M1.38719 2.88621C1.32594 2.75027 1.30079 2.62136 0.967194 2.47254C0.882976 2.43504 0.827194 2.35183 0.850163 2.25808C0.873132 2.16433 0.960632 2.09402 1.08751 2.11746C1.49985 2.19363 1.58954 2.64246 1.60704 2.79832C1.62344 2.94832 1.44954 3.02215 1.38719 2.88621Z" fill="#FFF59D"/>
<path d="M10.5955 8.3924C11.8664 7.77482 12.2405 6.16349 12.4395 5.46388C12.4658 5.3713 12.4527 5.28341 12.3663 5.25529C12.2799 5.22716 12.2284 5.28693 12.2011 5.3795C12.0567 5.88693 11.4956 7.58146 10.3374 8.0631C10.2531 8.09825 10.1219 8.1838 10.193 8.33028C10.24 8.42521 10.3909 8.492 10.5955 8.3924Z" fill="#FFF59D"/>
<path d="M12.6636 2.88621C12.7248 2.75027 12.75 2.62136 13.0836 2.47254C13.1678 2.43504 13.2236 2.35183 13.2006 2.25808C13.1776 2.16433 13.0901 2.09402 12.9633 2.11746C12.5509 2.19363 12.4612 2.64246 12.4437 2.79832C12.4273 2.94832 12.6023 3.02215 12.6636 2.88621Z" fill="#FFF59D"/>
<path d="M6.49462 3.46341C6.56134 3.31693 6.67837 3.11654 7.06009 3.03216C7.20665 2.99935 7.24931 2.93138 7.23618 2.82826C7.20993 2.6138 6.96056 2.62904 6.82603 2.66302C6.37759 2.77552 6.27806 3.20208 6.25946 3.37083C6.24087 3.53138 6.429 3.6099 6.49462 3.46341Z" fill="#FFF59D"/>
</g>
<defs>
<clipPath id="clip0_2_927">
<rect width="14" height="15" fill="white"/>
</clipPath>
</defs>
</svg>
